# MagicaVoxel @ Ephtracy

# group
o 

# material
mtllib Mountain.mtl
usemtl palette

# normals
vn -1 0 0
vn 1 0 0
vn 0 0 1
vn 0 0 -1
vn 0 -1 0
vn 0 1 0

# texcoords
vt 0.958984 0.5
vt 0.986328 0.5

# verts
v -2 0 2
v -2 0 -2
v -2 0.1 2
v -2 0.1 1.9
v -2 0.2 1.9
v -2 0.2 1.8
v -2 0.3 1.8
v -2 0.3 1.7
v -2 0.4 1.7
v -2 0.4 1.6
v -2 0.5 1.6
v -2 0.5 1.5
v -2 0.6 1.5
v -2 0.6 1.4
v -2 0.8 1.4
v -2 0.8 1.3
v -2 1 1.3
v -2 1 1.2
v -2 1.1 1.2
v -2 1.1 1.1
v -2 1.2 1.1
v -2 1.2 1
v -2 1.3 1
v -2 1.3 0.9
v -2 1.4 0.9
v -2 1.4 0.8
v -2 1.5 0.8
v -2 1.5 0.6
v -2 1.6 0.6
v -2 1.6 -2
v -1.9 1.6 0.3
v -1.9 1.6 -2
v -1.9 1.7 0.3
v -1.9 1.7 -2
v -1.8 1.7 0.0999999
v -1.8 1.7 -2
v -1.8 2 0.0999999
v -1.8 2 -2
v -1.7 2 -0.1
v -1.7 2 -2
v -1.7 2.2 -0.1
v -1.7 2.2 -2
v -1.5 2.2 -0.4
v -1.5 2.2 -2
v -1.5 2.4 -0.4
v -1.5 2.4 -2
v -1.3 2.4 -0.7
v -1.3 2.4 -2
v -1.3 2.6 -0.7
v -1.3 2.6 -2
v -1.1 2.6 -1
v -1.1 2.6 -2
v -1.1 2.9 -1
v -1.1 2.9 -2
v -0.9 2.9 -1.3
v -0.9 2.9 -2
v -0.9 3.2 -1.3
v -0.9 3.2 -2
v -0.8 3.2 -1.4
v -0.8 3.2 -2
v -0.8 3.4 -1.4
v -0.8 3.4 -2
v -0.7 3.4 -1.5
v -0.7 3.4 -2
v -0.7 3.5 -1.5
v -0.7 3.5 -2
v -0.5 3.5 -1.6
v -0.5 3.5 -1.7
v -0.5 3.5 -2
v -0.5 3.6 -1.7
v -0.5 3.6 -1.9
v -0.5 3.6 -2
v -0.5 3.7 -1.6
v -0.5 3.7 -1.9
v -0.3 3.4 -1.4
v -0.3 3.4 -1.5
v -0.3 3.5 -1.4
v -0.3 3.5 -1.5
v -0.2 2.9 -1.2
v -0.2 2.9 -1.3
v -0.2 3.2 -1.3
v -0.2 3.2 -1.4
v -0.2 3.3 -1.2
v -0.2 3.3 -1.4
v 0.6 3.2 -1.4
v 0.6 3.2 -1.5
v 0.6 3.3 -1.4
v 0.6 3.3 -1.5
v -0.3 3.2 -1.4
v -0.3 3.2 -1.5
v -0.3 3.3 -1.4
v -0.3 3.3 -1.5
v 0.4 3.4 -1.4
v 0.4 3.4 -1.5
v 0.4 3.5 -1.4
v 0.4 3.5 -1.5
v 0.4 3.6 -1.6
v 0.4 3.6 -1.7
v 0.4 3.6 -1.8
v 0.4 3.6 -1.9
v 0.4 3.7 -1.6
v 0.4 3.7 -1.7
v 0.4 3.7 -1.8
v 0.4 3.7 -1.9
v 0.5 3.4 -1.5
v 0.5 3.4 -1.6
v 0.5 3.5 -1.5
v 0.5 3.5 -1.6
v 0.6 2.9 -1.2
v 0.6 2.9 -1.3
v 0.6 3.2 -1.3
v 0.6 3.2 -1.4
v 0.6 3.3 -1.2
v 0.6 3.3 -1.4
v 0.6 3.5 -1.6
v 0.6 3.5 -1.7
v 0.6 3.6 -1.6
v 0.6 3.6 -1.7
v 0.6 3.6 -1.8
v 0.6 3.7 -1.7
v 0.6 3.7 -1.8
v 0.7 3.2 -1.7
v 0.7 3.2 -2
v 0.7 3.4 -1.6
v 0.7 3.4 -1.7
v 0.7 3.5 -1.6
v 0.7 3.5 -1.7
v 0.7 3.6 -1.7
v 0.7 3.6 -2
v 0.8 3.2 -1.4
v 0.8 3.2 -1.7
v 0.8 3.4 -1.4
v 0.8 3.4 -1.7
v 0.9 2.9 -1.3
v 0.9 2.9 -1.6
v 0.9 2.9 -1.9
v 0.9 2.9 -2
v 0.9 3.1 -1.6
v 0.9 3.1 -1.9
v 0.9 3.2 -1.3
v 0.9 3.2 -2
v 1 2.9 -1.6
v 1 2.9 -1.9
v 1 3.1 -1.6
v 1 3.1 -1.9
v 1.1 2.6 -1
v 1.1 2.6 -2
v 1.1 2.9 -1
v 1.1 2.9 -2
v 1.3 2.4 -0.7
v 1.3 2.4 -2
v 1.3 2.6 -0.7
v 1.3 2.6 -2
v 1.5 2.2 -0.4
v 1.5 2.2 -2
v 1.5 2.4 -0.4
v 1.5 2.4 -2
v 1.7 2 -0.1
v 1.7 2 -2
v 1.7 2.2 -0.1
v 1.7 2.2 -2
v 1.8 1.7 0.0999999
v 1.8 1.7 -2
v 1.8 2 0.0999999
v 1.8 2 -2
v 1.9 1.6 0.3
v 1.9 1.6 -2
v 1.9 1.7 0.3
v 1.9 1.7 -2
v 2 0 2
v 2 0 -2
v 2 0.1 2
v 2 0.1 1.9
v 2 0.2 1.9
v 2 0.2 1.8
v 2 0.3 1.8
v 2 0.3 1.7
v 2 0.4 1.7
v 2 0.4 1.6
v 2 0.5 1.6
v 2 0.5 1.5
v 2 0.6 1.5
v 2 0.6 1.4
v 2 0.8 1.4
v 2 0.8 1.3
v 2 1 1.3
v 2 1 1.2
v 2 1.1 1.2
v 2 1.1 1.1
v 2 1.2 1.1
v 2 1.2 1
v 2 1.3 1
v 2 1.3 0.9
v 2 1.4 0.9
v 2 1.4 0.8
v 2 1.5 0.8
v 2 1.5 0.6
v 2 1.6 0.6
v 2 1.6 -2
v -2 0 2
v -2 0.1 2
v 2 0 2
v 2 0.1 2
v -2 0.1 1.9
v -2 0.2 1.9
v 2 0.1 1.9
v 2 0.2 1.9
v -2 0.2 1.8
v -2 0.3 1.8
v 2 0.2 1.8
v 2 0.3 1.8
v -2 0.3 1.7
v -2 0.4 1.7
v 2 0.3 1.7
v 2 0.4 1.7
v -2 0.4 1.6
v -2 0.5 1.6
v 2 0.4 1.6
v 2 0.5 1.6
v -2 0.5 1.5
v -2 0.6 1.5
v 2 0.5 1.5
v 2 0.6 1.5
v -2 0.6 1.4
v -2 0.8 1.4
v 2 0.6 1.4
v 2 0.8 1.4
v -2 0.8 1.3
v -2 1 1.3
v 2 0.8 1.3
v 2 1 1.3
v -2 1 1.2
v -2 1.1 1.2
v 2 1 1.2
v 2 1.1 1.2
v -2 1.1 1.1
v -2 1.2 1.1
v 2 1.1 1.1
v 2 1.2 1.1
v -2 1.2 1
v -2 1.3 1
v 2 1.2 1
v 2 1.3 1
v -2 1.3 0.9
v -2 1.4 0.9
v 2 1.3 0.9
v 2 1.4 0.9
v -2 1.4 0.8
v -2 1.5 0.8
v 2 1.4 0.8
v 2 1.5 0.8
v -2 1.5 0.6
v -2 1.6 0.6
v 2 1.5 0.6
v 2 1.6 0.6
v -1.9 1.6 0.3
v -1.9 1.7 0.3
v 1.9 1.6 0.3
v 1.9 1.7 0.3
v -1.8 1.7 0.0999999
v -1.8 2 0.0999999
v 1.8 1.7 0.0999999
v 1.8 2 0.0999999
v -1.7 2 -0.1
v -1.7 2.2 -0.1
v 1.7 2 -0.1
v 1.7 2.2 -0.1
v -1.5 2.2 -0.4
v -1.5 2.4 -0.4
v 1.5 2.2 -0.4
v 1.5 2.4 -0.4
v -1.3 2.4 -0.7
v -1.3 2.6 -0.7
v 1.3 2.4 -0.7
v 1.3 2.6 -0.7
v -1.1 2.6 -1
v -1.1 2.9 -1
v 1.1 2.6 -1
v 1.1 2.9 -1
v -0.2 2.9 -1.2
v -0.2 3.3 -1.2
v 0.6 2.9 -1.2
v 0.6 3.3 -1.2
v -0.9 2.9 -1.3
v -0.9 3.2 -1.3
v -0.2 2.9 -1.3
v -0.2 3.2 -1.3
v 0.6 2.9 -1.3
v 0.6 3.2 -1.3
v 0.9 2.9 -1.3
v 0.9 3.2 -1.3
v -0.8 3.2 -1.4
v -0.8 3.4 -1.4
v -0.3 3.2 -1.4
v -0.3 3.3 -1.4
v -0.3 3.4 -1.4
v -0.3 3.5 -1.4
v -0.2 3.3 -1.4
v 0.4 3.4 -1.4
v 0.4 3.5 -1.4
v 0.6 3.2 -1.4
v 0.6 3.3 -1.4
v 0.8 3.2 -1.4
v 0.8 3.4 -1.4
v -0.7 3.4 -1.5
v -0.7 3.5 -1.5
v -0.3 3.2 -1.5
v -0.3 3.3 -1.5
v -0.3 3.4 -1.5
v -0.3 3.5 -1.5
v 0.4 3.4 -1.5
v 0.4 3.5 -1.5
v 0.5 3.4 -1.5
v 0.5 3.5 -1.5
v 0.6 3.2 -1.5
v 0.6 3.3 -1.5
v -0.5 3.5 -1.6
v -0.5 3.7 -1.6
v 0.4 3.6 -1.6
v 0.4 3.7 -1.6
v 0.5 3.4 -1.6
v 0.5 3.5 -1.6
v 0.6 3.5 -1.6
v 0.6 3.6 -1.6
v 0.7 3.4 -1.6
v 0.7 3.5 -1.6
v 0.9 2.9 -1.6
v 0.9 3.1 -1.6
v 1 2.9 -1.6
v 1 3.1 -1.6
v 0.4 3.6 -1.7
v 0.4 3.7 -1.7
v 0.6 3.5 -1.7
v 0.6 3.6 -1.7
v 0.6 3.7 -1.7
v 0.7 3.5 -1.7
v 0.7 3.6 -1.7
v -0.2 3.2 -1.4
v -0.2 3.3 -1.4
v 0.6 3.2 -1.4
v 0.6 3.3 -1.4
v 0.7 3.2 -1.7
v 0.7 3.4 -1.7
v 0.8 3.2 -1.7
v 0.8 3.4 -1.7
v 0.4 3.6 -1.8
v 0.4 3.7 -1.8
v 0.6 3.6 -1.8
v 0.6 3.7 -1.8
v -0.5 3.6 -1.9
v -0.5 3.7 -1.9
v 0.4 3.6 -1.9
v 0.4 3.7 -1.9
v 0.9 2.9 -1.9
v 0.9 3.1 -1.9
v 1 2.9 -1.9
v 1 3.1 -1.9
v -2 0 -2
v -2 1.6 -2
v -1.9 1.6 -2
v -1.9 1.7 -2
v -1.8 1.7 -2
v -1.8 2 -2
v -1.7 2 -2
v -1.7 2.2 -2
v -1.5 2.2 -2
v -1.5 2.4 -2
v -1.3 2.4 -2
v -1.3 2.6 -2
v -1.1 2.6 -2
v -1.1 2.9 -2
v -0.9 2.9 -2
v -0.9 3.2 -2
v -0.8 3.2 -2
v -0.8 3.4 -2
v -0.7 3.2 -2
v -0.7 3.4 -2
v -0.7 3.5 -2
v -0.5 3.4 -2
v -0.5 3.5 -2
v -0.5 3.6 -2
v 0.7 3.2 -2
v 0.7 3.6 -2
v 0.9 2.9 -2
v 0.9 3.2 -2
v 1.1 2.6 -2
v 1.1 2.9 -2
v 1.3 2.4 -2
v 1.3 2.6 -2
v 1.5 2.2 -2
v 1.5 2.4 -2
v 1.7 2 -2
v 1.7 2.2 -2
v 1.8 1.7 -2
v 1.8 2 -2
v 1.9 1.6 -2
v 1.9 1.7 -2
v 2 0 -2
v 2 1.6 -2
v -2 0 2
v 2 0 2
v -2 0 -2
v 2 0 -2
v -0.3 3.3 -1.4
v -0.2 3.3 -1.4
v 0.6 3.3 -1.4
v -0.3 3.3 -1.5
v 0.6 3.3 -1.5
v -2 0.1 2
v 2 0.1 2
v -2 0.1 1.9
v 2 0.1 1.9
v -2 0.2 1.9
v 2 0.2 1.9
v -2 0.2 1.8
v 2 0.2 1.8
v -2 0.3 1.8
v 2 0.3 1.8
v -2 0.3 1.7
v 2 0.3 1.7
v -2 0.4 1.7
v 2 0.4 1.7
v -2 0.4 1.6
v 2 0.4 1.6
v -2 0.5 1.6
v 2 0.5 1.6
v -2 0.5 1.5
v 2 0.5 1.5
v -2 0.6 1.5
v 2 0.6 1.5
v -2 0.6 1.4
v 2 0.6 1.4
v -2 0.8 1.4
v 2 0.8 1.4
v -2 0.8 1.3
v 2 0.8 1.3
v -2 1 1.3
v 2 1 1.3
v -2 1 1.2
v 2 1 1.2
v -2 1.1 1.2
v 2 1.1 1.2
v -2 1.1 1.1
v 2 1.1 1.1
v -2 1.2 1.1
v 2 1.2 1.1
v -2 1.2 1
v 2 1.2 1
v -2 1.3 1
v 2 1.3 1
v -2 1.3 0.9
v 2 1.3 0.9
v -2 1.4 0.9
v 2 1.4 0.9
v -2 1.4 0.8
v 2 1.4 0.8
v -2 1.5 0.8
v 2 1.5 0.8
v -2 1.5 0.6
v 2 1.5 0.6
v -2 1.6 0.6
v 2 1.6 0.6
v -1.9 1.6 0.3
v 1.9 1.6 0.3
v -2 1.6 -2
v -1.9 1.6 -2
v 1.9 1.6 -2
v 2 1.6 -2
v -1.9 1.7 0.3
v 1.9 1.7 0.3
v -1.8 1.7 0.0999999
v 1.8 1.7 0.0999999
v -1.9 1.7 -2
v -1.8 1.7 -2
v 1.8 1.7 -2
v 1.9 1.7 -2
v -1.8 2 0.0999999
v 1.8 2 0.0999999
v -1.7 2 -0.1
v 1.7 2 -0.1
v -1.8 2 -2
v -1.7 2 -2
v 1.7 2 -2
v 1.8 2 -2
v -1.7 2.2 -0.1
v 1.7 2.2 -0.1
v -1.5 2.2 -0.4
v 1.5 2.2 -0.4
v -1.7 2.2 -2
v -1.5 2.2 -2
v 1.5 2.2 -2
v 1.7 2.2 -2
v -1.5 2.4 -0.4
v 1.5 2.4 -0.4
v -1.3 2.4 -0.7
v 1.3 2.4 -0.7
v -1.5 2.4 -2
v -1.3 2.4 -2
v 1.3 2.4 -2
v 1.5 2.4 -2
v -1.3 2.6 -0.7
v 1.3 2.6 -0.7
v -1.1 2.6 -1
v 1.1 2.6 -1
v -1.3 2.6 -2
v -1.1 2.6 -2
v 1.1 2.6 -2
v 1.3 2.6 -2
v -1.1 2.9 -1
v 1.1 2.9 -1
v -0.2 2.9 -1.2
v 0.6 2.9 -1.2
v -0.9 2.9 -1.3
v -0.2 2.9 -1.3
v 0.6 2.9 -1.3
v 0.9 2.9 -1.3
v 0.9 2.9 -1.6
v 1 2.9 -1.6
v 0.9 2.9 -1.9
v 1 2.9 -1.9
v -1.1 2.9 -2
v -0.9 2.9 -2
v 0.9 2.9 -2
v 1.1 2.9 -2
v 0.9 3.1 -1.6
v 1 3.1 -1.6
v 0.9 3.1 -1.9
v 1 3.1 -1.9
v -0.9 3.2 -1.3
v -0.2 3.2 -1.3
v 0.6 3.2 -1.3
v 0.9 3.2 -1.3
v -0.8 3.2 -1.4
v -0.3 3.2 -1.4
v -0.2 3.2 -1.4
v 0.6 3.2 -1.4
v 0.8 3.2 -1.4
v -0.3 3.2 -1.5
v 0.6 3.2 -1.5
v 0.7 3.2 -1.7
v 0.8 3.2 -1.7
v -0.9 3.2 -2
v -0.8 3.2 -2
v 0.7 3.2 -2
v 0.9 3.2 -2
v -0.2 3.3 -1.2
v 0.6 3.3 -1.2
v -0.2 3.3 -1.4
v 0.6 3.3 -1.4
v -0.8 3.4 -1.4
v -0.3 3.4 -1.4
v 0.4 3.4 -1.4
v 0.8 3.4 -1.4
v -0.7 3.4 -1.5
v -0.3 3.4 -1.5
v 0.4 3.4 -1.5
v 0.5 3.4 -1.5
v 0.7 3.4 -1.5
v 0.5 3.4 -1.6
v 0.7 3.4 -1.6
v 0.7 3.4 -1.7
v 0.8 3.4 -1.7
v -0.8 3.4 -2
v -0.7 3.4 -2
v -0.3 3.5 -1.4
v 0.4 3.5 -1.4
v -0.7 3.5 -1.5
v -0.3 3.5 -1.5
v 0.4 3.5 -1.5
v 0.5 3.5 -1.5
v -0.5 3.5 -1.6
v 0.5 3.5 -1.6
v 0.6 3.5 -1.6
v 0.7 3.5 -1.6
v -0.5 3.5 -1.7
v 0.6 3.5 -1.7
v 0.7 3.5 -1.7
v -0.7 3.5 -2
v -0.5 3.5 -2
v 0.4 3.6 -1.6
v 0.6 3.6 -1.6
v 0.4 3.6 -1.7
v 0.6 3.6 -1.7
v 0.7 3.6 -1.7
v 0.4 3.6 -1.8
v 0.6 3.6 -1.8
v -0.5 3.6 -1.9
v 0.4 3.6 -1.9
v -0.5 3.6 -2
v 0.7 3.6 -2
v -0.5 3.7 -1.6
v 0.4 3.7 -1.6
v 0.4 3.7 -1.7
v 0.6 3.7 -1.7
v 0.4 3.7 -1.8
v 0.6 3.7 -1.8
v -0.5 3.7 -1.9
v 0.4 3.7 -1.9

# faces
f 3/2/1 2/2/1 1/2/1
f 4/2/1 2/2/1 3/2/1
f 5/2/1 2/2/1 4/2/1
f 6/2/1 2/2/1 5/2/1
f 7/2/1 2/2/1 6/2/1
f 8/2/1 2/2/1 7/2/1
f 9/2/1 2/2/1 8/2/1
f 10/2/1 2/2/1 9/2/1
f 11/2/1 2/2/1 10/2/1
f 12/2/1 2/2/1 11/2/1
f 13/2/1 2/2/1 12/2/1
f 14/2/1 2/2/1 13/2/1
f 15/2/1 2/2/1 14/2/1
f 16/2/1 2/2/1 15/2/1
f 17/2/1 2/2/1 16/2/1
f 18/2/1 2/2/1 17/2/1
f 19/2/1 2/2/1 18/2/1
f 20/2/1 2/2/1 19/2/1
f 21/2/1 2/2/1 20/2/1
f 22/2/1 2/2/1 21/2/1
f 23/2/1 2/2/1 22/2/1
f 24/2/1 2/2/1 23/2/1
f 25/2/1 2/2/1 24/2/1
f 26/2/1 2/2/1 25/2/1
f 27/2/1 2/2/1 26/2/1
f 28/2/1 2/2/1 27/2/1
f 29/2/1 2/2/1 28/2/1
f 30/2/1 2/2/1 29/2/1
f 33/2/1 32/2/1 31/2/1
f 34/2/1 32/2/1 33/2/1
f 37/2/1 36/2/1 35/2/1
f 38/2/1 36/2/1 37/2/1
f 41/2/1 40/2/1 39/2/1
f 42/2/1 40/2/1 41/2/1
f 45/2/1 44/2/1 43/2/1
f 46/2/1 44/2/1 45/2/1
f 49/2/1 48/2/1 47/2/1
f 50/2/1 48/2/1 49/2/1
f 53/2/1 52/2/1 51/2/1
f 54/2/1 52/2/1 53/2/1
f 57/2/1 56/2/1 55/2/1
f 58/2/1 56/2/1 57/2/1
f 61/1/1 60/1/1 59/1/1
f 62/1/1 60/1/1 61/1/1
f 65/1/1 64/1/1 63/1/1
f 66/1/1 64/1/1 65/1/1
f 70/1/1 68/1/1 67/1/1
f 70/2/1 69/2/1 68/2/1
f 71/2/1 69/2/1 70/2/1
f 72/2/1 69/2/1 71/2/1
f 73/1/1 70/1/1 67/1/1
f 73/1/1 71/1/1 70/1/1
f 74/1/1 71/1/1 73/1/1
f 77/1/1 76/1/1 75/1/1
f 78/1/1 76/1/1 77/1/1
f 81/1/1 80/1/1 79/1/1
f 83/1/1 81/1/1 79/1/1
f 83/1/1 82/1/1 81/1/1
f 84/1/1 82/1/1 83/1/1
f 87/1/1 86/1/1 85/1/1
f 88/1/1 86/1/1 87/1/1
f 89/1/2 90/1/2 91/1/2
f 91/1/2 90/1/2 92/1/2
f 93/1/2 94/1/2 95/1/2
f 95/1/2 94/1/2 96/1/2
f 97/1/2 98/1/2 101/1/2
f 101/1/2 98/1/2 102/1/2
f 99/1/2 100/1/2 103/1/2
f 103/1/2 100/1/2 104/1/2
f 105/1/2 106/1/2 107/1/2
f 107/1/2 106/1/2 108/1/2
f 109/1/2 110/1/2 111/1/2
f 109/1/2 111/1/2 113/1/2
f 111/1/2 112/1/2 113/1/2
f 113/1/2 112/1/2 114/1/2
f 115/1/2 116/1/2 117/1/2
f 117/1/2 116/1/2 118/1/2
f 118/1/2 119/1/2 120/1/2
f 120/1/2 119/1/2 121/1/2
f 122/2/2 123/2/2 125/2/2
f 124/1/2 125/1/2 126/1/2
f 125/2/2 123/2/2 127/2/2
f 126/1/2 125/1/2 127/1/2
f 127/2/2 123/2/2 128/2/2
f 128/2/2 123/2/2 129/2/2
f 130/1/2 131/1/2 132/1/2
f 132/1/2 131/1/2 133/1/2
f 134/2/2 135/2/2 138/2/2
f 136/2/2 137/2/2 139/2/2
f 134/2/2 138/2/2 140/2/2
f 138/2/2 139/2/2 140/2/2
f 139/2/2 137/2/2 141/2/2
f 140/2/2 139/2/2 141/2/2
f 142/1/2 143/1/2 144/1/2
f 144/1/2 143/1/2 145/1/2
f 146/2/2 147/2/2 148/2/2
f 148/2/2 147/2/2 149/2/2
f 150/2/2 151/2/2 152/2/2
f 152/2/2 151/2/2 153/2/2
f 154/2/2 155/2/2 156/2/2
f 156/2/2 155/2/2 157/2/2
f 158/2/2 159/2/2 160/2/2
f 160/2/2 159/2/2 161/2/2
f 162/2/2 163/2/2 164/2/2
f 164/2/2 163/2/2 165/2/2
f 166/2/2 167/2/2 168/2/2
f 168/2/2 167/2/2 169/2/2
f 170/2/2 171/2/2 172/2/2
f 172/2/2 171/2/2 173/2/2
f 173/2/2 171/2/2 174/2/2
f 174/2/2 171/2/2 175/2/2
f 175/2/2 171/2/2 176/2/2
f 176/2/2 171/2/2 177/2/2
f 177/2/2 171/2/2 178/2/2
f 178/2/2 171/2/2 179/2/2
f 179/2/2 171/2/2 180/2/2
f 180/2/2 171/2/2 181/2/2
f 181/2/2 171/2/2 182/2/2
f 182/2/2 171/2/2 183/2/2
f 183/2/2 171/2/2 184/2/2
f 184/2/2 171/2/2 185/2/2
f 185/2/2 171/2/2 186/2/2
f 186/2/2 171/2/2 187/2/2
f 187/2/2 171/2/2 188/2/2
f 188/2/2 171/2/2 189/2/2
f 189/2/2 171/2/2 190/2/2
f 190/2/2 171/2/2 191/2/2
f 191/2/2 171/2/2 192/2/2
f 192/2/2 171/2/2 193/2/2
f 193/2/2 171/2/2 194/2/2
f 194/2/2 171/2/2 195/2/2
f 195/2/2 171/2/2 196/2/2
f 196/2/2 171/2/2 197/2/2
f 197/2/2 171/2/2 198/2/2
f 198/2/2 171/2/2 199/2/2
f 202/2/3 201/2/3 200/2/3
f 203/2/3 201/2/3 202/2/3
f 206/2/3 205/2/3 204/2/3
f 207/2/3 205/2/3 206/2/3
f 210/2/3 209/2/3 208/2/3
f 211/2/3 209/2/3 210/2/3
f 214/2/3 213/2/3 212/2/3
f 215/2/3 213/2/3 214/2/3
f 218/2/3 217/2/3 216/2/3
f 219/2/3 217/2/3 218/2/3
f 222/2/3 221/2/3 220/2/3
f 223/2/3 221/2/3 222/2/3
f 226/2/3 225/2/3 224/2/3
f 227/2/3 225/2/3 226/2/3
f 230/2/3 229/2/3 228/2/3
f 231/2/3 229/2/3 230/2/3
f 234/2/3 233/2/3 232/2/3
f 235/2/3 233/2/3 234/2/3
f 238/2/3 237/2/3 236/2/3
f 239/2/3 237/2/3 238/2/3
f 242/2/3 241/2/3 240/2/3
f 243/2/3 241/2/3 242/2/3
f 246/2/3 245/2/3 244/2/3
f 247/2/3 245/2/3 246/2/3
f 250/2/3 249/2/3 248/2/3
f 251/2/3 249/2/3 250/2/3
f 254/2/3 253/2/3 252/2/3
f 255/2/3 253/2/3 254/2/3
f 258/2/3 257/2/3 256/2/3
f 259/2/3 257/2/3 258/2/3
f 262/2/3 261/2/3 260/2/3
f 263/2/3 261/2/3 262/2/3
f 266/2/3 265/2/3 264/2/3
f 267/2/3 265/2/3 266/2/3
f 270/2/3 269/2/3 268/2/3
f 271/2/3 269/2/3 270/2/3
f 274/2/3 273/2/3 272/2/3
f 275/2/3 273/2/3 274/2/3
f 278/2/3 277/2/3 276/2/3
f 279/2/3 277/2/3 278/2/3
f 282/1/3 281/1/3 280/1/3
f 283/1/3 281/1/3 282/1/3
f 286/2/3 285/2/3 284/2/3
f 287/2/3 285/2/3 286/2/3
f 290/2/3 289/2/3 288/2/3
f 291/2/3 289/2/3 290/2/3
f 294/1/3 293/1/3 292/1/3
f 295/1/3 293/1/3 294/1/3
f 296/1/3 293/1/3 295/1/3
f 298/1/3 297/1/3 296/1/3
f 298/1/3 296/1/3 295/1/3
f 299/1/3 297/1/3 298/1/3
f 300/1/3 297/1/3 299/1/3
f 302/1/3 299/1/3 298/1/3
f 303/1/3 302/1/3 301/1/3
f 304/1/3 299/1/3 302/1/3
f 304/1/3 302/1/3 303/1/3
f 309/1/3 306/1/3 305/1/3
f 310/1/3 306/1/3 309/1/3
f 313/1/3 312/1/3 311/1/3
f 314/1/3 312/1/3 313/1/3
f 315/2/3 308/2/3 307/2/3
f 316/2/3 308/2/3 315/2/3
f 319/1/3 318/1/3 317/1/3
f 320/1/3 318/1/3 319/1/3
f 322/1/3 319/1/3 317/1/3
f 323/1/3 319/1/3 322/1/3
f 323/1/3 322/1/3 321/1/3
f 324/1/3 319/1/3 323/1/3
f 325/1/3 323/1/3 321/1/3
f 326/1/3 323/1/3 325/1/3
f 329/1/3 328/1/3 327/1/3
f 330/1/3 328/1/3 329/1/3
f 334/1/3 332/1/3 331/1/3
f 335/1/3 332/1/3 334/1/3
f 336/2/3 334/2/3 333/2/3
f 337/2/3 334/2/3 336/2/3
f 338/1/4 339/1/4 340/1/4
f 340/1/4 339/1/4 341/1/4
f 342/1/4 343/1/4 344/1/4
f 344/1/4 343/1/4 345/1/4
f 346/1/4 347/1/4 348/1/4
f 348/1/4 347/1/4 349/1/4
f 350/1/4 351/1/4 352/1/4
f 352/1/4 351/1/4 353/1/4
f 354/1/4 355/1/4 356/1/4
f 356/1/4 355/1/4 357/1/4
f 358/2/4 359/2/4 360/2/4
f 360/2/4 361/2/4 362/2/4
f 362/2/4 363/2/4 364/2/4
f 364/2/4 365/2/4 366/2/4
f 366/2/4 367/2/4 368/2/4
f 368/2/4 369/2/4 370/2/4
f 370/2/4 371/2/4 372/2/4
f 372/2/4 373/2/4 374/2/4
f 372/2/4 374/2/4 376/2/4
f 374/1/4 375/1/4 376/1/4
f 376/1/4 375/1/4 377/1/4
f 376/2/4 377/2/4 379/2/4
f 377/1/4 378/1/4 379/1/4
f 379/1/4 378/1/4 380/1/4
f 372/2/4 376/2/4 382/2/4
f 380/2/4 381/2/4 382/2/4
f 379/2/4 380/2/4 382/2/4
f 376/2/4 379/2/4 382/2/4
f 382/2/4 381/2/4 383/2/4
f 370/2/4 372/2/4 384/2/4
f 372/2/4 382/2/4 384/2/4
f 384/2/4 382/2/4 385/2/4
f 368/2/4 370/2/4 386/2/4
f 370/2/4 384/2/4 386/2/4
f 386/2/4 384/2/4 387/2/4
f 366/2/4 368/2/4 388/2/4
f 368/2/4 386/2/4 388/2/4
f 388/2/4 386/2/4 389/2/4
f 364/2/4 366/2/4 390/2/4
f 366/2/4 388/2/4 390/2/4
f 390/2/4 388/2/4 391/2/4
f 362/2/4 364/2/4 392/2/4
f 364/2/4 390/2/4 392/2/4
f 392/2/4 390/2/4 393/2/4
f 360/2/4 362/2/4 394/2/4
f 362/2/4 392/2/4 394/2/4
f 394/2/4 392/2/4 395/2/4
f 358/2/4 360/2/4 396/2/4
f 360/2/4 394/2/4 396/2/4
f 396/2/4 394/2/4 397/2/4
f 358/2/4 396/2/4 398/2/4
f 398/2/4 396/2/4 399/2/4
f 402/2/5 401/2/5 400/2/5
f 403/2/5 401/2/5 402/2/5
f 407/1/5 405/1/5 404/1/5
f 407/1/5 406/1/5 405/1/5
f 408/1/5 406/1/5 407/1/5
f 409/2/6 410/2/6 411/2/6
f 411/2/6 410/2/6 412/2/6
f 413/2/6 414/2/6 415/2/6
f 415/2/6 414/2/6 416/2/6
f 417/2/6 418/2/6 419/2/6
f 419/2/6 418/2/6 420/2/6
f 421/2/6 422/2/6 423/2/6
f 423/2/6 422/2/6 424/2/6
f 425/2/6 426/2/6 427/2/6
f 427/2/6 426/2/6 428/2/6
f 429/2/6 430/2/6 431/2/6
f 431/2/6 430/2/6 432/2/6
f 433/2/6 434/2/6 435/2/6
f 435/2/6 434/2/6 436/2/6
f 437/2/6 438/2/6 439/2/6
f 439/2/6 438/2/6 440/2/6
f 441/2/6 442/2/6 443/2/6
f 443/2/6 442/2/6 444/2/6
f 445/2/6 446/2/6 447/2/6
f 447/2/6 446/2/6 448/2/6
f 449/2/6 450/2/6 451/2/6
f 451/2/6 450/2/6 452/2/6
f 453/2/6 454/2/6 455/2/6
f 455/2/6 454/2/6 456/2/6
f 457/2/6 458/2/6 459/2/6
f 459/2/6 458/2/6 460/2/6
f 461/2/6 462/2/6 463/2/6
f 463/2/6 462/2/6 464/2/6
f 461/2/6 463/2/6 465/2/6
f 465/2/6 463/2/6 466/2/6
f 464/2/6 462/2/6 467/2/6
f 467/2/6 462/2/6 468/2/6
f 469/2/6 470/2/6 471/2/6
f 471/2/6 470/2/6 472/2/6
f 469/2/6 471/2/6 473/2/6
f 473/2/6 471/2/6 474/2/6
f 472/2/6 470/2/6 475/2/6
f 475/2/6 470/2/6 476/2/6
f 477/2/6 478/2/6 479/2/6
f 479/2/6 478/2/6 480/2/6
f 477/2/6 479/2/6 481/2/6
f 481/2/6 479/2/6 482/2/6
f 480/2/6 478/2/6 483/2/6
f 483/2/6 478/2/6 484/2/6
f 485/2/6 486/2/6 487/2/6
f 487/2/6 486/2/6 488/2/6
f 485/2/6 487/2/6 489/2/6
f 489/2/6 487/2/6 490/2/6
f 488/2/6 486/2/6 491/2/6
f 491/2/6 486/2/6 492/2/6
f 493/2/6 494/2/6 495/2/6
f 495/2/6 494/2/6 496/2/6
f 493/2/6 495/2/6 497/2/6
f 497/2/6 495/2/6 498/2/6
f 496/2/6 494/2/6 499/2/6
f 499/2/6 494/2/6 500/2/6
f 501/2/6 502/2/6 503/2/6
f 503/2/6 502/2/6 504/2/6
f 501/2/6 503/2/6 505/2/6
f 505/2/6 503/2/6 506/2/6
f 504/2/6 502/2/6 507/2/6
f 507/2/6 502/2/6 508/2/6
f 509/2/6 510/2/6 511/2/6
f 511/2/6 510/2/6 512/2/6
f 509/2/6 511/2/6 513/2/6
f 513/2/6 511/2/6 514/2/6
f 512/2/6 510/2/6 515/2/6
f 515/2/6 510/2/6 516/2/6
f 516/2/6 510/2/6 517/2/6
f 517/2/6 510/2/6 518/2/6
f 518/2/6 510/2/6 520/2/6
f 509/2/6 513/2/6 521/2/6
f 521/2/6 513/2/6 522/2/6
f 519/2/6 520/2/6 523/2/6
f 520/2/6 510/2/6 524/2/6
f 523/2/6 520/2/6 524/2/6
f 525/1/6 526/1/6 527/1/6
f 527/1/6 526/1/6 528/1/6
f 529/2/6 530/2/6 533/2/6
f 533/2/6 530/2/6 534/2/6
f 534/2/6 530/2/6 535/2/6
f 531/2/6 532/2/6 536/2/6
f 536/2/6 532/2/6 537/2/6
f 534/2/6 535/2/6 538/2/6
f 535/2/6 536/2/6 538/2/6
f 538/2/6 536/2/6 539/2/6
f 537/2/6 532/2/6 541/2/6
f 529/2/6 533/2/6 542/2/6
f 542/2/6 533/2/6 543/2/6
f 540/2/6 541/2/6 544/2/6
f 541/2/6 532/2/6 545/2/6
f 544/2/6 541/2/6 545/2/6
f 546/1/6 547/1/6 548/1/6
f 548/1/6 547/1/6 549/1/6
f 550/1/6 551/1/6 554/1/6
f 554/1/6 551/1/6 555/1/6
f 552/1/6 553/1/6 556/1/6
f 556/1/6 553/1/6 557/1/6
f 557/1/6 553/1/6 558/1/6
f 557/2/6 558/2/6 559/2/6
f 558/1/6 553/1/6 560/1/6
f 559/2/6 558/2/6 560/2/6
f 560/1/6 553/1/6 561/1/6
f 561/1/6 553/1/6 562/1/6
f 550/1/6 554/1/6 563/1/6
f 563/1/6 554/1/6 564/1/6
f 565/1/6 566/1/6 568/1/6
f 568/1/6 566/1/6 569/1/6
f 567/1/6 568/1/6 571/1/6
f 569/1/6 570/1/6 571/1/6
f 568/1/6 569/1/6 571/1/6
f 571/1/6 570/1/6 572/1/6
f 567/1/6 571/1/6 575/1/6
f 573/1/6 574/1/6 576/1/6
f 576/1/6 574/1/6 577/1/6
f 567/1/6 575/1/6 578/1/6
f 578/1/6 575/1/6 579/1/6
f 580/1/6 581/1/6 582/1/6
f 582/1/6 581/1/6 583/1/6
f 583/2/6 584/2/6 586/2/6
f 585/2/6 586/2/6 588/2/6
f 587/2/6 588/2/6 589/2/6
f 586/2/6 584/2/6 590/2/6
f 589/2/6 588/2/6 590/2/6
f 588/2/6 586/2/6 590/2/6
f 591/1/6 592/1/6 593/1/6
f 591/1/6 593/1/6 595/1/6
f 593/1/6 594/1/6 595/1/6
f 595/1/6 594/1/6 596/1/6
f 591/1/6 595/1/6 597/1/6
f 597/1/6 595/1/6 598/1/6
